<svg xmlns="http://www.w3.org/2000/svg" width="32" height="32" viewBox="0 0 32 32">
  <rect width="32" height="32" rx="10" fill="#2b555f"/>
  <path d="M10 9.5h12a1.5 1.5 0 0 1 1.5 1.5v10a1.5 1.5 0 0 1-1.5 1.5H10A1.5 1.5 0 0 1 8.5 21V11A1.5 1.5 0 0 1 10 9.5z" fill="none" stroke="white" stroke-width="1.5" stroke-linejoin="round"/>
  <line x1="13" y1="9.5" x2="13" y2="7.5" stroke="white" stroke-width="1.5" stroke-linecap="round"/>
  <line x1="19" y1="9.5" x2="19" y2="7.5" stroke="white" stroke-width="1.5" stroke-linecap="round"/>
  <circle cx="13" cy="15" r="1" fill="white"/>
  <line x1="16" y1="15" x2="21" y2="15" stroke="white" stroke-width="1.3" stroke-linecap="round"/>
  <circle cx="13" cy="19" r="1" fill="white"/>
  <line x1="16" y1="19" x2="21" y2="19" stroke="white" stroke-width="1.3" stroke-linecap="round"/>
</svg>
